<svg width="310" height="270" viewBox="0 0 310 270" fill="none" xmlns="http://www.w3.org/2000/svg">
<g clip-path="url(#clip0_514_482)">
<path d="M59.8438 269.581C69.7033 269.582 79.3417 266.664 87.5402 261.196C95.7386 255.727 102.129 247.955 105.903 238.86C109.677 229.766 110.665 219.758 108.742 210.103C106.819 200.448 102.072 191.579 95.1003 184.618C88.129 177.656 79.2466 172.916 69.5767 170.995C59.9067 169.074 49.8833 170.059 40.7742 173.826C31.6651 177.593 23.8793 183.972 18.4015 192.157C12.9238 200.342 10 209.965 10 219.809C10 233.009 15.2512 245.667 24.5986 255.001C33.9459 264.335 46.6238 269.58 59.8438 269.581Z" fill="white"/>
<path d="M85.4717 234.939C84.4849 242.436 78.5359 247.804 69.7569 249.503C68.7547 249.687 67.7628 249.923 66.7852 250.21V258.432H59.2766V250.21C48.5014 249.078 42.4276 243.416 40.1592 233.79C44.129 232.799 47.8096 231.955 51.7737 230.959C52.0573 231.808 52.3408 232.516 52.6244 233.223C54.6036 239.022 61.1311 241.847 67.3694 239.588C68.5874 239.154 69.6517 238.374 70.4316 237.343C71.2114 236.313 71.6728 235.078 71.7588 233.79C71.9006 231.389 70.7721 229.407 68.3562 228.275C65.2427 227.006 61.9874 225.874 58.7152 224.6C57.0138 223.898 55.3125 223.467 53.6112 222.765C45.2575 219.226 41.577 213.139 42.5694 204.952C43.5619 196.889 48.6602 191.928 57.7227 190.23C58.1424 190.088 58.426 190.088 58.9931 189.947V183.718H66.3656L66.5074 189.947C66.5074 189.947 68.2087 190.088 72.3089 191.645C78.258 193.763 81.655 197.874 83.6512 203.661C80.2486 204.935 76.7098 206.345 73.3127 207.624C72.0367 205.79 71.0443 203.808 69.4904 202.251C67.2219 199.708 64.1085 199.001 60.8532 199.85C58.3012 200.558 56.6055 202.251 56.1802 204.799C55.7549 207.483 56.6055 209.606 59.2936 210.733C61.9818 211.86 64.8174 212.856 67.5055 213.989C69.7739 214.838 72.1785 215.687 74.447 216.673C83.2089 220.093 86.6059 226.032 85.4717 234.939Z" fill="#7879FF"/>
<path d="M277.344 57.6471L234.867 42.6591C232.137 41.6896 229.257 41.2122 226.36 41.2491C223.465 41.2356 220.589 41.7123 217.853 42.6591L175.393 57.6471C170.753 59.2377 166.721 62.2271 163.854 66.2029C160.988 70.1786 159.428 74.9447 159.389 79.8433V149.829C159.389 165.684 166.898 180.932 181.762 195.071C192.951 205.671 205.836 213.451 214.757 218.116C217.846 219.694 221.213 220.655 224.67 220.948H228.073C231.542 220.723 234.922 219.757 237.986 218.116C246.907 213.451 259.792 205.818 270.981 195.071C285.845 180.915 293.353 165.661 293.353 149.829V79.8433C293.49 69.9456 286.973 61.0388 277.344 57.6471Z" fill="#7879FF"/>
<path d="M270.124 71.9274L234.578 59.3458C230.006 57.6427 224.972 57.6427 220.4 59.3458L184.881 71.9274C180.975 73.2641 177.581 75.7808 175.171 79.1287C172.761 82.4766 171.453 86.49 171.429 90.613V149.263C171.429 162.552 177.798 175.417 190.144 187.155C199.49 196.062 210.396 202.562 217.757 206.52C220.355 207.847 223.202 208.619 226.116 208.785H229.088C232 208.619 234.845 207.848 237.442 206.52C244.944 202.704 255.708 196.203 265.054 187.155C277.531 175.264 283.769 162.552 283.769 149.263V90.5904C283.678 86.46 282.321 82.4567 279.882 79.1198C277.442 75.7829 274.037 73.2727 270.124 71.9274Z" fill="white"/>
<path d="M171.288 159.302C171.288 159.302 189.271 174.992 195.356 187.013C201.305 199.029 210.101 221.367 218.041 229.99C225.691 238.048 229.797 242.855 243.391 245.403C256.984 247.951 260.404 248.37 271.571 254.31C278.478 257.998 284.438 263.23 288.987 269.598L172.444 269.451L167.21 263.222L170.749 262.373L153.735 178.814L171.288 159.302Z" fill="#FD7838"/>
<path d="M180.628 170.185C175.524 162.824 163.921 150.82 154.008 146.573L150.752 140.345C150.752 140.345 145.512 151.511 143.947 155.333C141.537 161.125 135.168 179.081 135.168 179.081L125.527 176.816L129.497 141.755L124.824 146.137C124.824 146.137 109.954 151.505 104.856 156.171C99.7573 160.837 86.0218 174.975 82.3412 181.057C78.5189 187.138 76.9593 190.813 79.086 197.172C81.2126 203.53 86.3053 207.93 97.4945 206.503C105.139 205.654 106.841 205.235 107.135 205.093L107.561 211.027L100.341 268.873C100.341 268.873 101.901 269.015 131.21 269.439C160.665 269.864 172.558 269.298 172.558 269.298C172.558 269.298 163.07 218.264 163.354 214.872C163.639 212.713 164.113 210.583 164.771 208.508C164.771 208.508 179.925 211.05 185.585 200.45C190.966 190.122 185.585 177.399 180.628 170.185ZM126.259 218.116L125.414 200.728L129.383 201.996L126.259 218.116Z" fill="#1A1A1A"/>
<path d="M202.297 201.996C202.297 201.996 209.375 222.641 222.402 234.514C235.286 246.405 245.2 245.545 250.865 246.813C256.531 248.081 273.096 249.927 289.384 269.581C289.384 269.581 277.344 247.379 258.652 239.605C239.96 231.831 234.3 233.524 225.379 229.979C213.481 225.183 202.297 201.996 202.297 201.996Z" fill="#3A3B3A"/>
<path d="M145.938 112.079C145.938 112.079 144.525 117.452 147.072 122.271C147.072 122.271 149.057 120.431 151.609 120.855C154.161 121.28 155.998 123.964 155.147 127.084C154.297 130.204 152.459 131.183 151.325 131.183L150.616 140.373L147.214 147.015C147.214 147.015 140.839 151.115 134.47 149.422C128.102 147.729 128.663 146.024 128.663 146.024L129.089 143.335V141.636C129.089 141.636 123.139 140.362 123.565 131.597C123.889 125.885 124.647 120.207 125.833 114.61L127.245 109.661C127.245 109.661 129.797 111.36 134.618 111.779C139.438 112.198 145.938 112.079 145.938 112.079Z" fill="white"/>
<path d="M89.2997 182.914L101.617 182.772L104.022 175.276C104.022 175.276 92.9803 176.974 89.2997 182.914Z" fill="white"/>
<path d="M194.931 114.904C194.931 114.904 207.538 130.759 212.914 130.759C218.29 130.759 224.823 125.385 234.725 115.771C240.882 109.846 246.519 103.405 251.574 96.5188L263.608 99.7689C263.608 99.7689 252.992 118.29 242.228 131.438C231.322 144.586 220.564 154.342 213.197 154.059C205.825 153.917 198.05 149.818 191.675 138.08C185.437 126.189 183.889 117.158 183.889 117.158C183.889 117.158 193.802 114.485 194.931 114.904Z" fill="#7879FF"/>
<path d="M127.245 177.399L132.917 162.411L131.641 156.613L135.321 151.381L138.157 157.887L135.888 163.26L134.754 178.814L127.245 177.399Z" fill="#7879FF"/>
<path d="M125.408 201.294L126.259 218.116L129.236 201.996L125.408 201.294Z" fill="#7879FF"/>
<path d="M236.846 193.231C235.009 193.655 233.166 194.08 231.464 194.363C231.22 194.383 230.993 194.499 230.833 194.684C230.673 194.869 230.592 195.11 230.608 195.354C230.466 197.053 230.182 198.751 229.899 200.45C229.75 200.876 229.508 201.263 229.19 201.583C227.772 202.573 226.354 203.423 224.942 204.414C224.634 204.573 224.296 204.669 223.95 204.697C222.107 204.272 220.269 203.847 218.279 203.423C217.934 203.45 217.598 203.546 217.292 203.706C216.158 205.263 215.165 206.956 214.173 208.513C214.036 208.67 213.96 208.871 213.96 209.079C213.96 209.288 214.036 209.489 214.173 209.646C215.307 211.056 216.441 212.613 217.575 214.028C217.754 214.38 217.85 214.767 217.859 215.161C217.575 216.859 217.292 218.558 217.014 220.257C216.872 220.681 216.73 221.106 216.447 221.248C215.029 222.239 213.47 223.088 212.057 224.079C211.632 224.362 211.349 224.645 211.49 225.211C211.916 227.052 212.341 228.892 212.625 230.585C212.772 231.151 213.05 231.434 213.617 231.434C215.318 231.576 217.02 231.859 218.721 232.142C219.288 232.142 219.572 232.425 219.855 232.991C220.672 234.364 221.57 235.688 222.543 236.955C222.725 237.135 222.85 237.366 222.9 237.617C222.951 237.868 222.925 238.128 222.827 238.365C222.402 240.063 221.976 241.898 221.557 243.597C221.472 243.804 221.469 244.035 221.546 244.244C221.624 244.454 221.777 244.627 221.976 244.729L226.638 247.674C227.205 247.957 227.489 247.957 227.914 247.532C229.319 246.368 230.786 245.281 232.309 244.276C232.642 244.051 233.044 243.951 233.443 243.993C235.113 244.288 236.768 244.666 238.4 245.126C238.825 245.276 239.213 245.517 239.534 245.833C240.521 247.385 241.513 248.942 242.37 250.499C242.653 250.924 242.937 251.207 243.504 251.065C245.341 250.641 247.185 250.216 248.88 249.933C249.447 249.791 249.589 249.65 249.731 249.084C249.873 247.243 250.156 245.409 250.44 243.421C250.44 242.997 250.865 242.572 251.149 242.289C252.425 241.304 253.837 240.454 255.119 239.322C255.323 239.127 255.572 238.987 255.845 238.913C256.117 238.839 256.403 238.833 256.678 238.897C258.379 239.322 260.081 239.605 261.635 240.03C261.842 240.116 262.075 240.12 262.286 240.041C262.497 239.963 262.669 239.806 262.769 239.605L265.746 234.939C266.03 234.373 266.03 234.09 265.604 233.665C264.47 232.255 263.478 230.834 262.349 229.424C262.167 229.244 262.043 229.013 261.993 228.762C261.942 228.511 261.968 228.251 262.066 228.014C262.491 226.315 262.769 224.617 263.2 222.918C263.337 222.527 263.583 222.183 263.909 221.927C265.468 220.936 267.17 219.945 268.724 218.96C268.925 218.86 269.08 218.687 269.159 218.477C269.238 218.267 269.234 218.035 269.149 217.828C268.724 215.987 268.298 214.153 268.015 212.454C267.873 211.888 267.589 211.746 267.028 211.605C265.185 211.463 263.342 211.18 261.504 210.897C261.294 210.867 261.094 210.787 260.922 210.664C260.749 210.541 260.609 210.378 260.512 210.189C259.519 208.779 258.385 207.358 257.398 205.948C257.22 205.597 257.123 205.21 257.115 204.816C257.54 202.834 257.965 200.716 258.527 198.734L253.009 195.337C252.843 195.291 252.669 195.28 252.498 195.304C252.327 195.328 252.163 195.388 252.016 195.479C250.457 196.611 249.045 197.744 247.627 198.876C247.318 199.035 246.981 199.131 246.634 199.159C244.933 199.018 243.232 198.734 241.394 198.451C241.176 198.449 240.964 198.38 240.787 198.253C240.609 198.127 240.475 197.949 240.402 197.744C239.415 196.334 238.423 194.776 237.566 193.361C237.697 193.231 237.413 193.089 236.846 193.231ZM250.723 219.39C251.199 221.487 251.039 223.676 250.266 225.682C249.492 227.688 248.139 229.418 246.378 230.655C244.617 231.891 242.528 232.577 240.376 232.625C238.224 232.674 236.106 232.083 234.291 230.927C232.477 229.771 231.047 228.103 230.183 226.135C229.32 224.166 229.061 221.985 229.442 219.87C229.822 217.755 230.823 215.8 232.318 214.253C233.813 212.707 235.734 211.639 237.839 211.186C240.637 210.572 243.564 211.091 245.98 212.629C248.395 214.167 250.101 216.598 250.723 219.39Z" fill="white"/>
<path d="M126.537 112.645L127.387 109.814C130.748 111.111 134.277 111.919 137.867 112.215C143.108 112.498 148.643 112.215 148.643 112.215C148.643 112.215 147.225 118.154 149.346 121.274C150.07 120.996 150.839 120.852 151.614 120.85C152.89 120.85 153.452 121.133 154.45 122.407C154.45 122.407 157.144 118.307 157.711 115.335C158.278 112.362 157.989 109.967 156.151 108.693C155.178 107.935 154.075 107.359 152.896 106.994C152.896 106.994 151.478 100.918 147.656 99.5028C143.834 98.0872 139.149 97.9457 136.467 100.352C136.467 100.352 131.93 97.9457 128.68 100.069C124.858 102.753 124.574 105.578 124.858 107.702C125.027 109.457 125.601 111.149 126.537 112.645Z" fill="#1A1A1A"/>
<path d="M242.653 249.644C242.396 249.652 242.143 249.573 241.937 249.418C241.731 249.264 241.583 249.044 241.519 248.795C240.668 247.238 239.682 245.686 238.684 244.129C238.542 243.846 238.116 243.704 237.833 243.563C236.201 243.1 234.547 242.722 232.876 242.43C232.593 242.43 232.167 242.43 232.026 242.566C230.472 243.699 228.912 244.973 227.778 245.822C227.518 246.019 227.206 246.138 226.88 246.163C226.554 246.188 226.228 246.119 225.94 245.964C224.445 244.878 222.884 243.886 221.267 242.991C220.7 242.566 220.417 242.142 220.7 241.439C220.957 240.606 221.146 239.754 221.267 238.891C221.551 238.042 221.687 237.057 221.971 236.207C222.034 236.034 222.041 235.844 221.99 235.666C221.939 235.488 221.833 235.331 221.687 235.217C220.712 233.904 219.814 232.535 218.999 231.117C218.715 230.692 218.574 230.551 218.148 230.551C217.261 230.386 216.362 230.292 215.46 230.268C214.666 230.104 213.86 230.009 213.05 229.985C212.732 229.999 212.421 229.888 212.184 229.676C211.947 229.465 211.801 229.169 211.78 228.852C211.354 226.87 211.071 225.172 210.645 223.479C210.362 222.629 210.929 222.205 211.354 221.921C212.87 221.061 214.335 220.116 215.744 219.09C215.868 218.985 215.97 218.855 216.043 218.709C216.116 218.563 216.159 218.404 216.169 218.241L217.02 213.145C217.039 212.991 217.023 212.835 216.974 212.688C216.925 212.541 216.844 212.407 216.736 212.296C215.744 211.022 214.751 209.612 213.333 207.913C213.142 207.705 213.024 207.44 212.998 207.158C212.973 206.877 213.041 206.595 213.192 206.356C213.615 205.618 214.088 204.91 214.609 204.238C215.175 203.309 215.79 202.411 216.453 201.549C216.632 201.357 216.852 201.207 217.096 201.109C217.34 201.012 217.602 200.968 217.865 200.982C218.829 201.13 219.778 201.365 220.7 201.684C221.581 201.941 222.479 202.13 223.388 202.251C223.53 202.251 223.956 202.251 224.097 202.109C225.657 201.118 227.069 200.133 228.345 199.278C228.498 199.189 228.628 199.066 228.727 198.919C228.825 198.771 228.888 198.604 228.912 198.429C229.196 196.588 229.479 194.754 229.621 193.333C229.763 192.483 230.046 192.2 230.755 192.059C232.457 191.781 234.3 191.356 236.137 190.926C237.13 190.643 237.413 191.209 237.697 191.634C238.558 193.147 239.505 194.61 240.532 196.016C240.598 196.147 240.7 196.256 240.825 196.331C240.951 196.406 241.095 196.444 241.241 196.441C242.93 196.761 244.633 196.995 246.345 197.143C246.608 197.138 246.86 197.037 247.054 196.86C247.763 196.294 248.472 195.875 249.175 195.309C249.965 194.738 250.723 194.124 251.444 193.468C251.869 193.185 252.578 193.044 252.861 193.327C254.273 194.176 255.697 195.167 257.109 196.016L258.243 196.719C258.284 197.429 258.238 198.142 258.107 198.842C257.682 200.399 257.398 201.809 257.115 203.372C257.103 203.662 257.151 203.951 257.257 204.221C258.177 205.717 259.218 207.135 260.37 208.462C260.512 208.745 260.937 208.887 261.079 209.028C262.78 209.312 264.618 209.453 266.603 209.736C267.448 209.878 267.737 210.155 267.873 210.869C268.156 212.567 268.582 214.408 269.007 216.242C269.106 216.543 269.088 216.87 268.957 217.159C268.826 217.447 268.591 217.676 268.298 217.799C266.319 218.932 264.896 219.917 263.483 220.766C263.263 220.945 263.112 221.196 263.058 221.474C262.916 222.182 262.775 222.89 262.638 223.739C262.497 224.73 262.213 225.579 262.071 226.57C261.985 226.729 261.952 226.911 261.978 227.089C262.003 227.268 262.086 227.433 262.213 227.561L263.914 229.679C264.48 230.352 265.001 231.061 265.474 231.802C265.706 232.016 265.849 232.31 265.875 232.624C265.902 232.938 265.809 233.251 265.616 233.501C264.625 234.916 263.635 236.472 262.644 238.167C262.475 238.452 262.218 238.676 261.912 238.803C261.605 238.931 261.265 238.956 260.943 238.874C260.092 238.733 259.383 238.45 258.533 238.308C257.682 238.167 256.831 237.889 255.986 237.742C255.419 237.6 255.277 237.742 254.71 238.025C254.001 238.591 253.298 239.157 252.442 239.724C251.851 240.181 251.236 240.607 250.599 240.998C250.315 241.281 250.031 241.564 250.031 241.841C249.748 243.823 249.464 245.805 249.323 247.356C249.307 247.666 249.187 247.961 248.98 248.193C248.774 248.425 248.495 248.579 248.188 248.631C246.203 249.055 244.508 249.338 242.806 249.763C242.937 249.644 242.795 249.644 242.653 249.644ZM232.445 241.717C234.572 242.136 236.268 242.425 237.827 242.849C238.357 243.024 238.841 243.314 239.245 243.699C240.232 245.256 241.224 246.954 242.081 248.506C242.364 249.072 242.506 248.931 242.789 248.789C244.491 248.364 246.328 247.94 248.171 247.657C248.597 247.515 248.597 247.515 248.597 247.09C248.738 245.392 249.022 243.416 249.3 241.428C249.464 240.894 249.756 240.408 250.151 240.013C250.741 239.555 251.357 239.13 251.994 238.738C252.703 238.172 253.406 237.748 254.115 237.187C254.361 236.92 254.684 236.736 255.04 236.66C255.395 236.584 255.765 236.62 256.1 236.762C256.931 237.021 257.783 237.21 258.646 237.329C259.497 237.476 260.206 237.753 261.056 237.895C262.373 236.314 263.601 234.662 264.737 232.946C264.879 232.663 264.879 232.521 264.595 232.238L262.894 230.115C262.33 229.409 261.763 228.703 261.192 227.997C260.971 227.751 260.826 227.446 260.776 227.119C260.725 226.792 260.771 226.458 260.909 226.157C261.165 225.228 261.355 224.282 261.476 223.326C261.618 222.618 261.759 221.769 261.901 221.061C262.047 220.56 262.342 220.116 262.746 219.787C264.164 218.943 265.724 217.952 267.561 216.82C267.845 216.678 267.986 216.537 267.845 216.112C267.419 214.136 267 212.437 266.71 210.738C266.569 210.319 266.569 210.319 266.143 210.319C264.158 210.172 262.321 209.895 260.62 209.612C260.101 209.503 259.644 209.199 259.344 208.762C258.351 207.488 257.364 206.073 256.23 204.521C256.078 204.322 255.974 204.091 255.925 203.846C255.876 203.601 255.883 203.348 255.946 203.106C256.23 201.549 256.655 200.139 256.939 198.576L257.222 197.302L256.372 196.736C254.954 195.892 253.536 194.901 252.124 194.052C251.128 194.583 250.179 195.199 249.289 195.892C248.617 196.456 247.909 196.974 247.168 197.443C246.795 197.711 246.35 197.859 245.892 197.868C243.912 197.585 242.211 197.443 240.651 197.16C240.136 197.051 239.681 196.749 239.381 196.317C238.247 194.759 237.254 193.061 236.545 191.934C234.501 192.084 232.468 192.365 230.46 192.778C230.035 192.919 230.035 192.919 229.893 193.344C229.751 194.759 229.468 196.594 229.184 198.44C229.02 198.974 228.728 199.46 228.334 199.856C227.058 200.705 225.787 201.69 224.086 202.687C223.907 202.825 223.7 202.922 223.48 202.971C223.259 203.02 223.03 203.02 222.81 202.97C221.959 202.828 220.973 202.545 220.122 202.404C219.129 202.12 218.279 201.979 217.286 201.696C216.395 202.523 215.63 203.477 215.018 204.527C214.595 205.265 214.121 205.972 213.6 206.645C213.458 206.928 213.458 206.928 213.6 207.211C214.876 208.91 216.01 210.325 217.003 211.593C217.27 212.018 217.416 212.508 217.422 213.009C217.139 214.708 216.855 216.406 216.577 218.105C216.431 218.607 216.134 219.052 215.727 219.379C214.167 220.512 212.471 221.497 211.337 222.21C210.912 222.493 210.912 222.493 211.054 222.918C211.479 224.617 211.904 226.451 212.188 228.286C212.33 228.711 212.33 228.711 212.755 228.852C213.6 228.988 214.456 228.988 215.16 229.13C216.047 229.294 216.946 229.388 217.848 229.413C218.162 229.463 218.462 229.576 218.73 229.747C218.999 229.917 219.229 230.141 219.407 230.404C220.258 231.819 221.25 233.088 222.095 234.367C222.293 234.598 222.435 234.872 222.509 235.166C222.583 235.461 222.587 235.769 222.521 236.066C222.237 236.915 222.095 237.906 221.818 238.75C221.67 239.599 221.392 240.448 221.25 241.298C221.109 241.581 221.25 241.723 221.534 242.006C223.228 243.138 224.784 244.127 226.201 244.973C226.485 245.114 226.627 245.256 226.91 244.831C228.044 243.84 229.604 242.708 231.3 241.434C231.606 241.864 232.031 241.728 232.457 241.728L232.445 241.717ZM239.387 231.111C236.618 231.09 233.954 230.05 231.907 228.189C229.859 226.328 228.571 223.779 228.29 221.028C228.009 218.278 228.754 215.521 230.383 213.286C232.013 211.05 234.411 209.494 237.118 208.915C237.912 208.751 238.718 208.656 239.529 208.632C244.905 208.632 249.294 212.307 250.57 217.539C250.921 218.984 250.964 220.487 250.697 221.95C250.429 223.413 249.856 224.804 249.016 226.032C248.225 227.283 247.193 228.365 245.98 229.214C244.767 230.064 243.397 230.664 241.95 230.981C240.952 230.981 240.101 231.123 239.398 231.123L239.387 231.111ZM239.387 209.481C238.623 209.506 237.864 209.601 237.118 209.765C234.419 210.335 232.056 211.948 230.544 214.253C229.032 216.557 228.494 219.365 229.048 222.063C229.506 224.425 230.778 226.552 232.643 228.075C234.507 229.599 236.847 230.422 239.256 230.404C240.02 230.379 240.779 230.285 241.525 230.12C242.858 229.835 244.12 229.287 245.239 228.509C246.357 227.732 247.31 226.739 248.041 225.591C249.038 224.021 249.599 222.214 249.667 220.357C249.736 218.499 249.309 216.657 248.43 215.018C247.552 213.379 246.253 212.002 244.667 211.028C243.082 210.055 241.265 209.519 239.404 209.476L239.387 209.481Z" fill="#1A1A1A"/>
<path d="M215.324 151.664C213.022 151.604 210.757 151.076 208.666 150.112C204.56 148.272 201.021 145.305 197.891 141.206C194.21 136.257 191.233 130.6 188.817 123.086C188.25 121.246 187.683 119.406 187.116 117.424C186.814 116.548 186.577 115.651 186.407 114.74C186.69 114.174 194.477 112.05 194.477 112.05C195.328 111.767 196.036 111.626 196.887 111.343C197.117 111.263 197.367 111.261 197.598 111.338C197.829 111.414 198.027 111.566 198.163 111.767C201.844 116.716 206.517 121.393 212.466 126.048C213.182 126.644 214.032 127.058 214.944 127.255C215.855 127.452 216.801 127.427 217.7 127.18C219.657 126.608 221.519 125.749 223.224 124.632C227.761 121.801 231.731 118.132 234.98 114.876C241.595 108.246 247.791 101.211 253.531 93.8122C253.669 93.5382 253.907 93.3271 254.195 93.2219C254.484 93.1167 254.802 93.1253 255.084 93.246C257.778 93.9537 260.466 94.8031 263.155 95.5109L265.99 96.2187C258.618 110.941 250.979 122.09 243.05 131.563C239.08 136.37 234.13 141.885 228.039 146.285C226.215 147.637 224.271 148.82 222.232 149.818C220.125 151.012 217.747 151.648 215.324 151.664ZM187.144 114.768C187.428 115.612 187.569 116.32 187.853 117.033C188.42 119.015 188.845 120.85 189.554 122.696C191.959 130.057 194.789 135.719 198.475 140.509C201.589 144.609 204.986 147.434 208.95 149.274C213.339 151.256 217.729 151.256 221.84 149.133C223.856 148.168 225.758 146.983 227.511 145.599C233.46 141.217 238.417 135.843 242.256 131.036C250.196 121.563 257.835 110.391 265.763 97.102C265.621 96.9604 262.928 96.2583 262.928 96.2583C260.24 95.5505 257.551 94.8427 254.858 93.9934C254.574 93.8518 254.574 93.7103 254.149 94.2765C248.371 101.684 242.13 108.72 235.462 115.34C232.201 118.596 228.237 122.271 223.553 125.238C221.799 126.484 219.831 127.396 217.746 127.927C216.727 128.226 215.65 128.265 214.612 128.043C213.574 127.82 212.609 127.343 211.802 126.653C205.853 121.846 201.027 117.18 197.358 112.09C196.396 112.183 195.446 112.372 194.522 112.656L187.144 114.768Z" fill="#1A1A1A"/>
<path d="M151.461 129.043C151.178 128.901 148.206 126.501 148.206 126.501C148.206 125.793 151.461 122.967 151.461 122.967C151.538 122.903 151.637 122.87 151.737 122.874C151.838 122.879 151.933 122.921 152.004 122.992C152.075 123.063 152.117 123.158 152.121 123.258C152.126 123.358 152.093 123.456 152.028 123.534L149.057 126.076L151.745 128.199C151.815 128.277 151.853 128.378 151.853 128.482C151.853 128.587 151.815 128.688 151.745 128.766C151.745 129.043 151.603 129.043 151.461 129.043Z" fill="#1A1A1A"/>
<path d="M129.514 127.916C128.663 127.208 128.805 125.651 130.223 119.423C130.305 119.197 130.352 118.96 130.365 118.721C130.358 118.661 130.363 118.601 130.381 118.544C130.4 118.487 130.43 118.434 130.469 118.389C130.509 118.344 130.558 118.309 130.613 118.284C130.668 118.26 130.727 118.247 130.787 118.247C130.847 118.247 130.906 118.26 130.961 118.284C131.016 118.309 131.065 118.344 131.105 118.389C131.145 118.434 131.175 118.487 131.193 118.544C131.211 118.601 131.216 118.661 131.21 118.721C131.193 119.006 131.146 119.289 131.068 119.564C129.797 124.802 129.661 126.501 129.661 126.925C130.442 126.655 131.201 126.324 131.93 125.934C132.072 125.793 132.355 125.934 132.497 126.076C132.639 126.217 132.497 126.501 132.355 126.642C131.558 127.343 130.568 127.787 129.514 127.916Z" fill="#1A1A1A"/>
<path d="M132.911 131.597C131.129 131.306 129.332 131.117 127.529 131.03C127.416 131.03 127.308 130.986 127.228 130.906C127.148 130.826 127.104 130.718 127.104 130.606C127.104 130.493 127.148 130.385 127.228 130.305C127.308 130.226 127.416 130.181 127.529 130.181C129.656 130.323 132.911 130.747 133.053 130.747C133.336 130.747 133.478 131.03 133.336 131.172C133.345 131.23 133.34 131.289 133.321 131.344C133.303 131.4 133.272 131.45 133.231 131.491C133.189 131.533 133.139 131.564 133.083 131.582C133.028 131.6 132.969 131.605 132.911 131.597Z" fill="#1A1A1A"/>
<path d="M137.601 123.534C137.417 123.522 137.243 123.443 137.113 123.313C136.983 123.183 136.904 123.01 136.892 122.826L137.034 120.838C137.034 120.414 137.459 120.131 137.743 120.272C138.168 120.272 138.452 120.697 138.31 120.98V122.962C138.291 123.131 138.206 123.286 138.073 123.394C137.941 123.501 137.771 123.551 137.601 123.534Z" fill="#1A1A1A"/>
<path d="M126.962 122.537C126.536 122.537 126.253 122.112 126.395 121.829L126.536 119.847C126.536 119.423 126.962 119.145 127.245 119.281C127.671 119.281 127.954 119.7 127.812 119.983L127.671 121.965C127.671 122.401 127.393 122.684 126.962 122.537Z" fill="#1A1A1A"/>
<path d="M139.569 119.428L136.308 119.151C136.195 119.151 136.087 119.106 136.007 119.027C135.927 118.947 135.883 118.839 135.883 118.726C135.883 118.614 135.927 118.506 136.007 118.426C136.087 118.346 136.195 118.302 136.308 118.302L139.569 118.585C139.679 118.593 139.783 118.64 139.861 118.718C139.939 118.796 139.986 118.899 139.994 119.009C139.986 119.119 139.939 119.222 139.86 119.299C139.782 119.376 139.679 119.422 139.569 119.428Z" fill="#1A1A1A"/>
<path d="M129.094 118.573L125.839 118.432C125.726 118.432 125.618 118.387 125.538 118.307C125.458 118.228 125.414 118.12 125.414 118.007C125.414 117.895 125.458 117.787 125.538 117.707C125.618 117.627 125.726 117.582 125.839 117.582L129.094 117.724C129.152 117.715 129.211 117.721 129.267 117.739C129.322 117.757 129.373 117.788 129.414 117.829C129.455 117.871 129.486 117.921 129.505 117.977C129.523 118.032 129.528 118.091 129.52 118.149C129.513 118.259 129.466 118.363 129.387 118.442C129.309 118.52 129.205 118.567 129.094 118.573Z" fill="#1A1A1A"/>
<path d="M136.733 150.112C130.784 149.971 128.38 146.573 128.38 146.438C128.33 146.344 128.319 146.235 128.347 146.134C128.376 146.032 128.442 145.945 128.533 145.89C128.624 145.836 128.732 145.818 128.835 145.841C128.938 145.864 129.029 145.925 129.089 146.013C129.089 146.013 131.357 149.263 136.461 149.41C139.013 149.41 144.815 148.844 147.367 146.443C147.445 146.375 147.546 146.337 147.65 146.337C147.754 146.337 147.855 146.375 147.934 146.443C148.003 146.521 148.042 146.622 148.042 146.726C148.042 146.831 148.003 146.932 147.934 147.009C145.229 149.546 139.869 150.112 136.733 150.112Z" fill="#1A1A1A"/>
<path d="M257.829 188.99C257.404 188.706 257.404 188.423 257.546 188.282C271.984 175.559 279.351 162.128 279.351 148.272V79.2771C279.351 73.9092 275.671 68.9604 270.277 67.1201L228.492 52.1321C225.333 51.0053 221.88 51.0053 218.721 52.1321L176.947 66.9786C171.565 68.8188 167.874 73.7733 167.874 79.1355V132.163C167.874 132.275 167.829 132.384 167.749 132.463C167.669 132.543 167.561 132.588 167.448 132.588C167.335 132.588 167.227 132.543 167.147 132.463C167.068 132.384 167.023 132.275 167.023 132.163V79.2771C167.023 73.4846 170.851 68.2526 176.664 66.2538L218.437 51.4073C221.791 50.2805 225.422 50.2805 228.776 51.4073L270.55 66.2538C276.221 68.2356 280.191 73.4676 280.191 79.2771V148.272C280.191 162.269 272.682 175.983 258.073 188.848C258.007 188.918 257.923 188.967 257.829 188.99Z" fill="#1A1A1A"/>
<path d="M132.911 142.615C131.625 142.613 130.344 142.473 129.089 142.196C127.624 141.758 126.314 140.914 125.31 139.763C124.306 138.611 123.65 137.199 123.417 135.69C122.85 132.582 123.276 129.462 123.559 126.501L123.701 124.802C124.268 119.706 124.977 114.044 126.814 109.514C126.956 109.231 127.098 109.231 127.381 109.231C127.665 109.372 127.665 109.514 127.665 109.797C125.964 114.179 125.26 119.83 124.693 124.779L124.552 126.336C124.032 129.328 123.936 132.378 124.268 135.396C124.835 138.227 126.389 140.203 128.805 141.058C131.777 141.908 134.612 141.625 136.745 141.341C137.028 141.341 137.17 141.483 137.17 141.625C137.17 141.908 137.028 142.044 136.886 142.044C135.604 142.462 134.259 142.656 132.911 142.615Z" fill="#1A1A1A"/>
<path d="M134.765 179.517C134.655 179.51 134.55 179.463 134.472 179.385C134.394 179.307 134.347 179.202 134.34 179.092L135.474 163.238C135.474 163.096 137.743 157.722 137.743 157.722C137.884 157.439 138.026 157.439 138.31 157.439C138.593 157.581 138.593 157.722 138.593 158.006L136.325 163.238L135.191 178.928C135.179 179.233 135.038 179.517 134.765 179.517Z" fill="#1A1A1A"/>
<path d="M135.9 163.685C135.758 163.685 131.363 162.835 131.363 162.835C131.079 162.835 130.937 162.552 131.079 162.269C131.079 161.986 131.363 161.845 131.646 161.986L136.036 162.835C136.319 162.835 136.461 163.119 136.319 163.402C136.308 163.543 136.166 163.685 135.9 163.685Z" fill="#1A1A1A"/>
<path d="M125.833 177.54C125.705 177.516 125.59 177.444 125.511 177.339C125.432 177.235 125.396 177.105 125.408 176.974L131.079 162.252L129.945 156.313C129.921 156.205 129.937 156.091 129.992 155.995C130.046 155.899 130.134 155.826 130.239 155.79C130.345 155.755 130.459 155.76 130.561 155.804C130.662 155.848 130.744 155.929 130.79 156.029L132.066 162.111C132.066 162.394 126.395 177.24 126.395 177.24C126.117 177.54 125.975 177.54 125.833 177.54Z" fill="#1A1A1A"/>
<path d="M267.431 193.089C267.011 192.806 267.011 192.523 267.153 192.381C281.591 178.526 288.958 163.685 288.958 148.272V79.2771C288.958 69.8041 282.72 61.322 273.521 58.0718L231.742 43.2253C226.519 41.3907 220.825 41.3907 215.602 43.2253L173.686 57.9472C164.482 61.1974 158.25 69.6795 158.25 79.1525V84.1014C158.258 84.1586 158.253 84.217 158.235 84.2719C158.217 84.3269 158.186 84.3769 158.146 84.4181C158.105 84.4592 158.055 84.4904 158.001 84.5091C157.946 84.5279 157.887 84.5337 157.83 84.526C157.772 84.5346 157.713 84.5296 157.657 84.5113C157.602 84.493 157.551 84.4619 157.51 84.4206C157.469 84.3794 157.438 84.329 157.419 84.2735C157.401 84.2181 157.396 84.1591 157.405 84.1014V79.1355C157.405 69.3851 163.773 60.45 173.403 57.0809L215.318 42.359C220.736 40.5244 226.608 40.5244 232.026 42.359L273.799 57.2055C283.287 60.6029 289.803 69.3681 289.803 79.2601V148.272C289.803 163.968 282.431 179.092 267.686 192.948C267.714 193.089 267.572 193.089 267.431 193.089Z" fill="#1A1A1A"/>
<path d="M150.752 131.597H150.043C149.504 131.51 148.987 131.314 148.525 131.022C148.063 130.73 147.665 130.348 147.355 129.898C147.306 129.804 147.294 129.696 147.323 129.594C147.351 129.492 147.418 129.405 147.509 129.351C147.599 129.297 147.707 129.279 147.811 129.302C147.914 129.324 148.005 129.386 148.064 129.473C148.582 130.153 149.341 130.609 150.185 130.747H151.178C152.053 130.582 152.85 130.134 153.446 129.473C154.176 128.698 154.625 127.702 154.722 126.642C154.872 125.959 154.873 125.252 154.727 124.568C154.58 123.885 154.288 123.24 153.871 122.679C153.761 122.425 153.558 122.223 153.304 122.112C152.835 121.665 152.243 121.369 151.603 121.263C150.327 121.121 148.348 121.546 147.355 122.82C146.93 123.386 146.646 123.386 146.505 123.245C146.363 123.103 146.221 122.82 146.363 122.679C147.021 121.908 147.85 121.302 148.785 120.909C149.719 120.516 150.733 120.346 151.745 120.414C152.522 120.567 153.25 120.907 153.866 121.405L154.575 122.112C155.416 123.464 155.766 125.063 155.567 126.642C155.434 127.871 154.884 129.018 154.008 129.892C153.332 130.722 152.376 131.276 151.319 131.449C151.148 131.55 150.951 131.601 150.752 131.597Z" fill="#1A1A1A"/>
<path d="M154.291 122.967C153.866 122.826 153.866 122.543 153.866 122.26C159.537 112.928 157.127 110.369 155.567 108.97C154.828 108.218 153.899 107.68 152.879 107.413C152.595 107.413 152.454 107.13 152.595 106.988C152.595 106.705 152.879 106.564 153.021 106.705C154.103 106.922 155.093 107.466 155.856 108.262C157.841 110.244 160.529 113.07 154.58 122.984C154.575 122.826 154.433 122.967 154.291 122.967Z" fill="#1A1A1A"/>
<path d="M147.242 122.967C146.817 122.543 144.27 118.437 145.682 112.362C145.682 112.079 145.966 111.937 146.249 112.079C146.533 112.079 146.675 112.362 146.533 112.645C145.115 118.443 147.525 122.401 147.525 122.401C147.667 122.543 147.525 122.826 147.384 122.967H147.242Z" fill="#1A1A1A"/>
<path d="M150.611 140.781C150.5 140.774 150.396 140.727 150.317 140.649C150.239 140.571 150.192 140.467 150.185 140.356L150.894 131.166C150.885 131.109 150.891 131.05 150.909 130.994C150.927 130.939 150.958 130.888 151 130.847C151.041 130.806 151.091 130.775 151.147 130.756C151.203 130.738 151.262 130.733 151.319 130.742C151.43 130.748 151.534 130.795 151.613 130.873C151.691 130.952 151.738 131.056 151.745 131.166L151.036 140.356C151.029 140.467 150.982 140.571 150.904 140.649C150.825 140.727 150.721 140.774 150.611 140.781Z" fill="#1A1A1A"/>
<path d="M140.556 163.685C140.13 163.402 134.612 150.662 134.612 150.662L126.962 161.986C126.82 162.128 126.536 162.269 126.395 162.128C126.253 161.986 126.117 161.703 126.253 161.561L134.329 149.671C135.038 149.671 140.839 163.26 140.839 163.26C140.981 163.543 140.839 163.685 140.556 163.826V163.685Z" fill="#1A1A1A"/>
<path d="M149.057 182.489C148.631 182.348 148.631 182.065 148.631 181.782L153.735 173.583L150.622 164.953C150.905 164.387 158.561 161.845 158.561 161.845L153.747 147.123L150.633 141.33C150.208 142.315 149.215 144.297 148.087 146.84C145.393 152.779 141.429 161.828 137.879 171.754C137.028 174.154 136.319 176.419 135.469 179.386C135.469 179.669 135.191 179.669 134.901 179.669C134.612 179.669 134.618 179.386 134.618 179.103C135.315 176.511 136.165 173.962 137.164 171.47C140.703 161.573 144.667 152.383 147.372 146.556C149.074 142.74 150.344 140.328 150.344 140.328C151.053 140.328 154.733 147.123 154.733 147.123L159.69 162.252C159.832 162.535 159.69 162.677 159.406 162.819L151.762 165.361L154.875 173.701C154.875 174.126 149.635 182.472 149.635 182.472L149.057 182.489Z" fill="#1A1A1A"/>
<path d="M126.395 218.966C125.975 218.4 127.104 211.469 129.089 201.854C129.089 201.571 129.372 201.43 129.656 201.571C129.939 201.571 130.081 201.854 129.939 202.137C128.521 208.643 127.671 213.875 127.245 216.701L135.457 203.411C135.599 203.27 135.883 203.128 136.024 203.27C136.166 203.411 136.308 203.695 136.166 203.836L126.826 218.824C126.769 218.879 126.701 218.92 126.626 218.944C126.552 218.969 126.473 218.976 126.395 218.966Z" fill="#1A1A1A"/>
<path d="M60.5526 266.042C54.2609 266.111 48.018 264.933 42.1853 262.576C36.3526 260.22 31.046 256.731 26.5725 252.313C22.0991 247.895 18.5477 242.636 16.124 236.838C13.7002 231.041 12.4522 224.821 12.4522 218.538C12.4522 212.256 13.7002 206.036 16.124 200.239C18.5477 194.441 22.0991 189.181 26.5725 184.763C31.046 180.345 36.3526 176.857 42.1853 174.501C48.018 172.144 54.2609 170.966 60.5526 171.034C68.6227 171.034 75.2976 172.592 81.5359 175.842C81.6777 175.983 81.8195 176.266 81.6777 176.408C81.6221 176.506 81.5385 176.586 81.4375 176.636C81.3364 176.687 81.2226 176.706 81.1106 176.691C75.0254 173.441 68.5093 172.025 60.581 172.025C53.6373 172.02 46.7796 173.559 40.5065 176.532C34.2335 179.504 28.7027 183.835 24.3164 189.209C19.9301 194.584 16.7985 200.867 15.1493 207.601C13.5001 214.336 13.3748 221.352 14.7825 228.141C16.1902 234.93 19.0954 241.321 23.2871 246.848C27.4787 252.375 32.8513 256.9 39.0142 260.094C45.1772 263.288 51.9756 265.07 58.915 265.312C65.8545 265.553 72.7607 264.247 79.1313 261.49C79.4149 261.348 79.5567 261.49 79.6985 261.773C79.8402 262.056 79.6985 262.197 79.4149 262.339C73.4258 264.777 67.0205 266.035 60.5526 266.042Z" fill="#1A1A1A"/>
<path d="M90.8536 255.301C90.4283 255.018 90.4283 254.734 90.5701 254.593C94.8504 251.082 98.4505 246.818 101.192 242.011C101.334 241.864 101.617 241.728 101.759 241.864C101.901 242 102.043 242.289 101.901 242.43C99.0558 247.287 95.3623 251.597 90.9954 255.153C91.1372 255.301 90.9954 255.301 90.8536 255.301Z" fill="#1A1A1A"/>
<path d="M63.2408 257.702H56.4354C56.3775 257.71 56.3185 257.705 56.263 257.687C56.2074 257.668 56.157 257.637 56.1156 257.596C56.0742 257.555 56.0432 257.504 56.0248 257.449C56.0065 257.394 56.0014 257.335 56.0101 257.277V249.503C46.3691 248.229 40.6979 242.708 38.5939 232.816C38.5956 232.706 38.622 232.598 38.6711 232.5C38.7202 232.402 38.7907 232.317 38.8775 232.25L49.6527 229.418C49.7647 229.404 49.8785 229.423 49.9796 229.473C50.0806 229.524 50.1643 229.603 50.2198 229.701C50.3791 230.01 50.4754 230.347 50.5034 230.692L50.9287 231.966C51.3205 233.256 51.9766 234.45 52.8553 235.472C53.7339 236.495 54.816 237.324 56.0327 237.906C57.2543 238.452 58.5739 238.746 59.9121 238.769C61.2502 238.792 62.5793 238.545 63.8192 238.042C66.0877 237.057 67.358 235.211 67.4998 232.533C67.616 231.494 67.4054 230.446 66.8972 229.532C66.389 228.619 65.6086 227.887 64.6642 227.437L58.7152 224.889C57.7284 224.464 56.8777 224.181 55.8796 223.756C55.3834 223.508 54.8601 223.318 54.3201 223.19C53.3276 222.765 52.199 222.341 51.2066 221.916C43.4201 218.241 39.8643 212.16 40.8681 203.678C41.8605 195.479 46.6753 190.388 55.046 188.548C55.8966 188.265 55.8966 182.319 55.8966 182.319C55.888 182.262 55.8931 182.203 55.9114 182.147C55.9297 182.092 55.9608 182.041 56.0022 182C56.0435 181.959 56.094 181.928 56.1495 181.91C56.2051 181.891 56.2641 181.886 56.322 181.895H63.1273C63.1852 181.886 63.2442 181.891 63.2998 181.91C63.3553 181.928 63.4058 181.959 63.4471 182C63.4885 182.041 63.5196 182.092 63.5379 182.147C63.5562 182.203 63.5613 182.262 63.5527 182.319L63.6945 188.112C65.4257 188.528 67.1302 189.048 68.7985 189.669C71.6149 190.696 74.0746 192.512 75.8818 194.901C75.9134 194.948 75.9352 195 75.9458 195.055C75.9564 195.11 75.9556 195.167 75.9434 195.222C75.9313 195.277 75.9081 195.329 75.8752 195.375C75.8423 195.42 75.8005 195.459 75.7522 195.488C75.7039 195.516 75.6502 195.535 75.5944 195.543C75.5386 195.55 75.4818 195.546 75.4276 195.531C75.3734 195.516 75.3228 195.49 75.279 195.455C75.2352 195.419 75.1991 195.375 75.1729 195.326C73.4586 193.026 71.0855 191.3 68.3675 190.377C64.5451 188.961 63.1273 188.82 63.1273 188.82C62.702 188.395 62.5602 182.591 62.5602 182.591H56.7303V188.384C55.5961 189.092 55.4543 189.092 55.1707 189.092C47.0988 190.79 42.5619 195.598 41.56 203.513C40.5675 211.571 43.9702 217.369 51.4731 220.902C52.4656 221.327 53.5941 221.752 54.5866 222.176C55.1537 222.318 55.7208 222.601 56.1462 222.743C57.1386 223.167 57.9836 223.45 58.9817 223.875C60.9666 224.719 63.0877 225.426 65.0726 226.417C66.1618 226.925 67.0706 227.752 67.6783 228.787C68.2861 229.823 68.564 231.019 68.4752 232.216C68.4618 233.556 68.0512 234.863 67.2954 235.972C66.5395 237.08 65.4721 237.94 64.2276 238.444C62.8793 239.019 61.4248 239.303 59.9591 239.279C58.4933 239.254 57.0492 238.922 55.7208 238.303C54.3897 237.681 53.2086 236.78 52.2582 235.661C51.3078 234.542 50.6106 233.232 50.2141 231.819L49.7888 230.545C49.647 230.404 49.647 230.121 49.5052 229.979L39.5921 232.527C41.7188 241.853 47.2425 247.085 56.6055 248.217C56.7161 248.224 56.8205 248.271 56.8988 248.349C56.9772 248.427 57.0241 248.531 57.0309 248.642V256.416H62.9572V248.653C63.217 248.361 63.5657 248.162 63.9497 248.087C64.8003 247.945 65.3675 247.662 66.0763 247.521C74.016 245.969 79.2448 240.726 80.0954 233.365C81.2297 224.594 78.1105 218.802 70.324 215.121C68.9063 214.419 67.4885 213.853 66.2181 213.287C65.4371 213.016 64.6786 212.685 63.9497 212.296L61.8287 211.446C59.9855 210.738 58.1424 209.895 56.305 209.045C53.7529 207.771 52.7662 205.648 53.1915 202.539C53.3488 201.299 53.8791 200.135 54.7122 199.201C55.5454 198.267 56.6425 197.607 57.8588 197.308C61.2615 196.464 64.2332 197.308 66.2181 199.856C67.1472 200.992 67.9532 202.224 68.6227 203.53C68.9063 203.955 69.1898 204.521 69.4734 204.946L72.5868 203.672C72.8704 203.53 73.0122 203.672 73.1539 203.955C73.2957 204.238 73.1539 204.38 72.8704 204.521L69.3316 205.931C68.6431 205.425 68.1043 204.742 67.772 203.955C67.106 202.647 66.2997 201.415 65.3675 200.28C63.099 197.308 59.9855 197.449 57.8588 198.015C56.7993 198.274 55.8418 198.844 55.11 199.651C54.3781 200.459 53.9054 201.467 53.7529 202.545C53.3276 205.235 54.1783 207.075 56.4467 208.06C58.2842 208.91 60.1273 209.759 61.9704 210.467L64.0914 211.31C64.8003 211.593 65.5092 211.877 66.3599 212.16C67.772 212.726 69.1955 213.292 70.6076 214C78.6776 217.964 81.9499 224.034 80.8157 233.082C79.8289 240.72 74.1634 246.371 66.0707 247.928L63.944 248.353C63.6604 248.353 63.6604 256.28 63.6604 256.28C63.6661 257.418 63.5243 257.702 63.2408 257.702Z" fill="#1A1A1A"/>
<path d="M299.575 270H12.9717C12.9121 270.007 12.8517 270.001 12.7945 269.983C12.7373 269.965 12.6846 269.935 12.6398 269.895C12.595 269.855 12.5591 269.807 12.5346 269.752C12.51 269.697 12.4973 269.638 12.4973 269.578C12.4973 269.518 12.51 269.459 12.5346 269.404C12.5591 269.35 12.595 269.301 12.6398 269.261C12.6846 269.221 12.7373 269.191 12.7945 269.173C12.8517 269.155 12.9121 269.149 12.9717 269.156H299.575C299.634 269.149 299.695 269.155 299.752 269.173C299.809 269.191 299.862 269.221 299.907 269.261C299.951 269.301 299.987 269.35 300.012 269.404C300.036 269.459 300.049 269.518 300.049 269.578C300.049 269.638 300.036 269.697 300.012 269.752C299.987 269.807 299.951 269.855 299.907 269.895C299.862 269.935 299.809 269.965 299.752 269.983C299.695 270.001 299.634 270.007 299.575 270Z" fill="#1A1A1A"/>
<path d="M201.305 198.038C199.462 195.071 197.483 191.396 195.214 187.155C191.244 179.941 175.393 161.986 169.444 158.028C169.303 157.887 169.161 157.604 169.303 157.462C169.444 157.32 169.728 157.179 169.87 157.32C175.961 161.42 191.817 179.375 195.923 186.73C198.192 190.971 200.171 194.658 201.73 197.489C201.872 197.63 201.73 197.913 201.589 198.055L201.305 198.038Z" fill="#1A1A1A"/>
<path d="M289.667 270C280.321 255.301 269.417 244.98 256.956 239.039C256.814 238.897 256.672 238.755 256.814 238.472C256.956 238.189 257.098 238.189 257.381 238.331C269.983 244.271 281.03 254.751 290.093 269.292C290.229 269.434 290.093 269.717 289.945 269.858C289.874 269.94 289.775 269.99 289.667 270Z" fill="#1A1A1A"/>
<path d="M93.831 207.228C89.7194 207.228 85.6135 206.379 82.4887 203.695C80.5682 201.983 79.1491 199.784 78.3827 197.33C77.8156 195.496 76.8232 191.821 77.8156 188.837C78.3343 187.112 79.0478 185.452 79.9423 183.888C82.2108 179.647 85.3186 175.83 87.587 173.005C92.1981 167.541 97.1213 162.348 102.332 157.451C106.302 153.776 112.103 151.222 117.077 148.957C119.832 147.865 122.489 146.539 125.017 144.994C125.158 144.852 125.442 144.994 125.584 145.135C125.726 145.277 125.584 145.56 125.442 145.701C123.315 147.111 120.338 148.385 117.366 149.665C112.41 151.93 106.75 154.331 102.786 158.006C97.5775 162.855 92.6543 168.002 88.0407 173.418C85.1464 176.746 82.5859 180.35 80.396 184.177C79.529 185.705 78.8165 187.315 78.2693 188.984C77.4186 191.815 78.2693 195.212 78.8364 197.041C79.5605 199.325 80.8797 201.375 82.6588 202.981C87.6154 207.222 94.9765 206.514 101.493 205.529C108.662 204.501 115.658 202.505 122.289 199.595C122.572 199.454 122.714 199.595 122.856 199.878C122.998 200.161 122.856 200.303 122.572 200.444C115.2 203.411 108.553 205.393 101.476 206.379C98.9717 206.972 96.4044 207.257 93.831 207.228Z" fill="#1A1A1A"/>
<path d="M172.416 270H100.058C99.6326 269.292 102.752 238.189 103.88 223.767C104.873 211.61 105.44 205.535 105.44 205.393C105.44 205.281 105.485 205.173 105.564 205.093C105.644 205.013 105.752 204.969 105.865 204.969C105.978 204.969 106.086 205.013 106.166 205.093C106.246 205.173 106.29 205.281 106.29 205.393C106.29 205.393 105.723 211.622 104.731 223.767C103.738 237.357 100.909 265.193 100.483 269.156H171.849C170.862 264.349 163.212 226.315 162.775 215.71C162.639 213.445 163.059 211.327 164.193 208.502C164.335 208.219 164.477 208.219 164.76 208.219C165.044 208.36 165.044 208.502 165.044 208.785C164.051 211.469 163.626 213.451 163.768 215.71C164.193 226.882 172.841 269.015 172.972 269.434C172.7 270 172.558 270 172.416 270Z" fill="#1A1A1A"/>
<path d="M289.384 270C279.411 257.509 265.122 249.191 249.323 246.677C249.045 246.677 248.897 246.388 249.045 246.252C249.045 245.969 249.323 245.828 249.464 245.969C265.399 248.432 279.815 256.813 289.826 269.434C289.863 269.477 289.89 269.529 289.903 269.584C289.917 269.64 289.916 269.698 289.902 269.754C289.888 269.809 289.861 269.861 289.823 269.903C289.785 269.946 289.738 269.979 289.684 270H289.384Z" fill="#1A1A1A"/>
<path d="M89.2997 183.333C91.2789 178.95 96.5191 176.408 103.88 175.276C104.164 175.276 104.306 175.417 104.306 175.559C104.306 175.842 104.164 175.983 104.022 175.983C97.3698 177.116 92.555 179.234 90.1447 182.348L101.617 182.206C101.675 182.198 101.734 182.203 101.79 182.221C101.845 182.239 101.896 182.27 101.937 182.312C101.979 182.353 102.01 182.403 102.028 182.459C102.046 182.514 102.051 182.573 102.043 182.631C102.05 182.688 102.045 182.747 102.026 182.801C102.007 182.856 101.976 182.906 101.935 182.946C101.893 182.987 101.843 183.017 101.788 183.035C101.733 183.053 101.675 183.058 101.617 183.05L89.2997 183.333Z" fill="#1A1A1A"/>
<path d="M167.885 209.351C166.038 209.34 164.194 209.198 162.367 208.927C129.797 204.963 98.7819 192.664 98.504 192.506C98.4172 192.439 98.3467 192.353 98.2976 192.255C98.2485 192.157 98.2221 192.049 98.2204 191.94L104.306 172.427C104.306 172.286 104.589 172.144 104.731 172.144L161.233 184.16C161.516 184.16 161.658 184.443 161.516 184.726C161.516 185.009 161.233 185.151 160.949 185.009L104.708 173.158L99.1845 191.962C102.729 193.372 132.038 204.419 162.48 208.219C173.528 209.634 181.314 206.945 185 200.728C190.104 191.962 186.135 178.39 179.618 169.477C167.295 152.938 153.843 146.998 153.701 146.998C153.418 146.857 153.418 146.721 153.418 146.432C153.565 146.149 153.701 146.149 153.985 146.149C154.127 146.149 167.72 152.224 180.044 168.77C186.849 177.829 190.819 191.815 185.562 200.863C183.322 204.969 178.365 209.351 167.885 209.351Z" fill="#1A1A1A"/>
<path d="M126.395 218.966C125.975 218.683 121.291 200.728 121.291 200.728C121.265 200.671 121.251 200.609 121.251 200.546C121.25 200.484 121.263 200.421 121.288 200.364C121.313 200.307 121.35 200.255 121.396 200.213C121.442 200.17 121.497 200.138 121.556 200.118C121.615 200.098 121.678 200.091 121.741 200.097C121.803 200.103 121.864 200.122 121.918 200.153C121.973 200.183 122.021 200.225 122.058 200.276C122.096 200.326 122.122 200.383 122.136 200.444L125.68 214.034C125.538 210.778 125.255 206.107 124.971 200.745C124.971 200.632 125.016 200.524 125.096 200.444C125.176 200.365 125.284 200.32 125.397 200.32C125.509 200.32 125.618 200.365 125.697 200.444C125.777 200.524 125.822 200.632 125.822 200.745C126.105 210.637 126.809 218.298 126.809 218.417C126.826 218.824 126.678 218.966 126.395 218.966Z" fill="#1A1A1A"/>
<path d="M125.408 177.54C125.35 177.549 125.291 177.544 125.235 177.526C125.18 177.507 125.129 177.476 125.088 177.435C125.047 177.394 125.016 177.343 124.997 177.288C124.979 177.233 124.974 177.174 124.983 177.116C125.266 170.887 125.691 166.793 126.253 162.394L126.395 161.686C127.529 150.237 128.947 143.567 128.947 143.448V142.882L122.141 149.388L114.769 160.276L118.875 164.093C119.017 164.659 114.627 172.586 114.627 172.586L115.194 174.562C115.232 174.675 115.223 174.798 115.17 174.904C115.117 175.01 115.023 175.091 114.911 175.128C114.798 175.166 114.675 175.157 114.568 175.104C114.462 175.051 114.381 174.958 114.344 174.845L113.776 172.58C113.776 172.297 118.024 164.381 118.024 164.381L113.918 160.418C113.918 159.851 121.291 148.527 121.291 148.527L128.794 141.319C129.503 141.602 129.503 143.295 129.503 143.295C129.503 143.436 128.085 150.09 126.95 161.533L126.809 162.241C126.383 166.624 125.964 170.734 125.538 176.963C125.589 177 125.628 177.051 125.65 177.11C125.672 177.169 125.677 177.233 125.663 177.294C125.649 177.356 125.617 177.412 125.572 177.455C125.527 177.499 125.47 177.529 125.408 177.54Z" fill="#1A1A1A"/>
<path d="M86.3224 184.324C85.897 183.899 85.897 183.616 86.1806 183.475C87.192 183.063 88.2351 182.733 89.2997 182.489C89.5833 182.489 89.7194 182.631 89.7194 182.772C89.7194 183.05 89.5833 183.191 89.4415 183.191C88.4696 183.44 87.521 183.772 86.6059 184.182C86.5325 184.263 86.4313 184.314 86.3224 184.324Z" fill="#1A1A1A"/>
<path d="M125.833 115.612C125.408 115.329 117.474 106.139 124.415 99.3556C128.663 95.2561 135.038 98.9309 136.325 99.7802C137.317 99.0725 141.281 96.8075 147.231 99.214C151.62 100.913 153.18 106.705 153.321 106.847C153.359 106.959 153.35 107.082 153.297 107.189C153.244 107.295 153.151 107.375 153.038 107.413C152.925 107.451 152.802 107.442 152.695 107.389C152.589 107.336 152.508 107.243 152.471 107.13C152.471 107.13 150.911 101.615 146.947 100.063C140.431 97.5153 136.739 100.63 136.608 100.771C136.041 100.771 129.236 95.9639 125 100.063C118.483 106.422 125.992 115.046 126.134 115.046C126.2 115.125 126.237 115.225 126.237 115.329C126.237 115.432 126.2 115.533 126.134 115.612C125.975 115.47 125.975 115.612 125.833 115.612Z" fill="#1A1A1A"/>
<path d="M141.832 112.645C136.45 112.645 127.654 112.079 125.833 108.545C125.691 108.404 125.833 108.121 125.975 107.979C126.117 107.838 126.395 107.979 126.542 108.121C128.527 111.937 141.287 111.937 145.943 111.654C146.056 111.654 146.164 111.699 146.244 111.778C146.324 111.858 146.369 111.966 146.369 112.079C146.369 112.191 146.324 112.299 146.244 112.379C146.164 112.459 146.056 112.503 145.943 112.503C145.796 112.503 144.1 112.645 141.832 112.645Z" fill="#1A1A1A"/>
<path d="M69.5981 77.3293H25.8622C20.5439 77.3293 16.2326 81.6338 16.2326 86.9438V109.978C16.2326 115.288 20.5439 119.593 25.8622 119.593H69.5981C74.9164 119.593 79.2277 115.288 79.2277 109.978V86.9438C79.2277 81.6338 74.9164 77.3293 69.5981 77.3293Z" fill="#7879FF"/>
<path d="M66.5868 75.908H23.917C18.5987 75.908 14.2874 80.2126 14.2874 85.5226V106.382C14.2874 111.692 18.5987 115.997 23.917 115.997H66.5868C71.905 115.997 76.2164 111.692 76.2164 106.382V85.5226C76.2164 80.2126 71.905 75.908 66.5868 75.908Z" stroke="#231F20" stroke-width="1.5" stroke-miterlimit="10"/>
<path d="M53.7246 115.997H36.7735V132.922H53.7246V115.997Z" fill="#1A1A1A"/>
<path d="M89.0615 93.8518H70.8344C68.263 93.8518 66.1784 95.9331 66.1784 98.5006V126.484C66.1784 129.051 68.263 131.132 70.8344 131.132H89.0615C91.633 131.132 93.7175 129.051 93.7175 126.484V98.5006C93.7175 95.9331 91.633 93.8518 89.0615 93.8518Z" fill="white"/>
<path d="M90.7288 96.0318H72.5018C69.9303 96.0318 67.8457 98.1131 67.8457 100.681V128.664C67.8457 131.231 69.9303 133.312 72.5018 133.312H90.7288C93.3003 133.312 95.3849 131.231 95.3849 128.664V100.681C95.3849 98.1131 93.3003 96.0318 90.7288 96.0318Z" fill="#7879FF"/>
<path d="M89.0615 93.8518H70.8344C68.263 93.8518 66.1784 95.9331 66.1784 98.5006V126.484C66.1784 129.051 68.263 131.132 70.8344 131.132H89.0615C91.633 131.132 93.7175 129.051 93.7175 126.484V98.5006C93.7175 95.9331 91.633 93.8518 89.0615 93.8518Z" stroke="#231F20" stroke-miterlimit="10"/>
<path d="M101.379 107.198H91.8461C90.1829 107.198 88.8347 108.544 88.8347 110.205V128.862C88.8347 130.522 90.1829 131.868 91.8461 131.868H101.379C103.042 131.868 104.391 130.522 104.391 128.862V110.205C104.391 108.544 103.042 107.198 101.379 107.198Z" fill="white"/>
<path d="M103.239 108.642H91.8801C90.7212 108.642 89.7818 109.58 89.7818 110.737V131.217C89.7818 132.374 90.7212 133.312 91.8801 133.312H103.239C104.398 133.312 105.338 132.374 105.338 131.217V110.737C105.338 109.58 104.398 108.642 103.239 108.642Z" fill="#7879FF"/>
<path d="M101.697 107.198H91.5285C90.0407 107.198 88.8347 108.402 88.8347 109.887V129.179C88.8347 130.664 90.0407 131.868 91.5285 131.868H101.697C103.185 131.868 104.391 130.664 104.391 129.179V109.887C104.391 108.402 103.185 107.198 101.697 107.198Z" stroke="#231F20" stroke-miterlimit="10"/>
<path d="M42.9551 94.9333C42.9551 94.9333 45.042 97.555 45.9381 97.555C46.8341 97.555 47.906 96.666 49.5506 95.0749C50.5706 94.0942 51.5041 93.0276 52.3408 91.887L54.3371 92.4249C53.2784 94.2542 52.0941 96.0081 50.7926 97.6739C48.9892 99.8539 47.2028 101.473 45.9835 101.422C44.7642 101.371 43.4598 100.72 42.4163 98.7554C41.824 97.6648 41.3887 96.4963 41.1233 95.2844C41.723 95.1165 42.3357 94.9991 42.9551 94.9333Z" fill="white"/>
<path d="M77.5604 111.348C77.5604 111.348 78.8932 113.047 79.4603 113.047C80.0274 113.047 80.7193 112.481 81.7628 111.462C82.4156 110.838 83.0116 110.158 83.5435 109.429L84.8195 109.774C84.1422 110.941 83.3842 112.059 82.551 113.121C81.4168 114.514 80.2826 115.544 79.4829 115.516C78.6833 115.487 77.8837 115.063 77.2145 113.817C76.8366 113.124 76.5597 112.38 76.3922 111.609C76.7733 111.488 77.1642 111.401 77.5604 111.348Z" fill="white"/>
<path d="M95.5607 118.924C95.5607 118.924 96.4113 119.995 96.7686 119.995C97.1259 119.995 97.5739 119.632 98.2431 118.981C98.6579 118.582 99.0374 118.148 99.3774 117.684L100.188 117.905C99.7589 118.65 99.2776 119.363 98.7479 120.04C98.0106 120.929 97.2847 121.586 96.7913 121.563C96.4725 121.538 96.1672 121.424 95.9104 121.234C95.6536 121.043 95.4558 120.785 95.3395 120.487C95.0983 120.045 94.9226 119.57 94.8177 119.077C95.0605 119.005 95.3091 118.954 95.5607 118.924Z" fill="white"/>
</g>
<defs>
<clipPath id="clip0_514_482">
<rect width="290" height="229" fill="white" transform="translate(10 41)"/>
</clipPath>
</defs>
</svg>
