<svg width="190" height="119" viewBox="0 0 190 119" fill="none" xmlns="http://www.w3.org/2000/svg">
<g clip-path="url(#clip0_909_6197)">
<path d="M65.753 24.7653C65.753 23.8112 66.5418 23.0195 67.5329 23.0195H169.066C170.057 23.0195 170.846 23.7909 170.846 24.7653V43.5229H174.608V24.8059C174.608 21.6188 171.918 19 168.642 19H67.9576C64.6811 19 61.991 21.6188 61.991 24.8059V51.3183H65.753V24.7653Z" fill="white"/>
<path d="M24.5936 110.778H106.892C108.106 110.778 109.158 110.048 109.643 109.012V57.9363C109.158 56.901 108.106 56.1702 106.892 56.1702H24.5936C22.9148 56.1702 21.5395 57.5506 21.5395 59.2355V107.713C21.5395 109.398 22.9148 110.778 24.5936 110.778ZM25.4835 60.6363C25.4835 60.3521 25.7262 60.1085 26.0094 60.1085H105.476C105.76 60.1085 106.002 60.3318 106.002 60.6363V106.333C106.002 106.617 105.78 106.86 105.476 106.86H26.0094C25.7262 106.86 25.4835 106.637 25.4835 106.333V60.6363Z" fill="white"/>
<path d="M147.87 83.4945H114.497V87.514H147.87V83.4945Z" fill="white"/>
<path d="M135.471 93.0764H114.497V97.0552H135.471C136.725 97.0552 137.757 96.162 137.757 95.0658C137.757 93.9696 136.725 93.0764 135.471 93.0764Z" fill="white"/>
<path d="M18.3438 116.3L18.7079 117.193C19.0922 118.087 19.8001 118.838 20.7102 118.838H109.663V114.635H18.5663C17.6562 114.635 18.0404 115.244 18.3438 116.3Z" fill="white"/>
<path d="M186.926 48.3544H155.94C154.119 49.1055 152.865 50.892 152.865 52.9829V83.4742V87.4937V113.965C152.865 116.726 155.09 118.98 157.861 118.98H185.024C187.775 118.98 190.02 116.747 190.02 113.965V52.9829C190 50.892 188.726 49.1055 186.926 48.3544ZM164.414 51.7243C164.414 51.5822 164.536 51.4604 164.677 51.4604H178.188C178.33 51.4604 178.451 51.5822 178.451 51.7243V52.8205C178.451 52.9626 178.33 53.0844 178.188 53.0844H164.677C164.536 53.0844 164.414 52.9626 164.414 52.8205V51.7243ZM171.433 117.944C169.815 117.944 168.48 116.625 168.48 114.981C168.48 113.356 169.794 112.017 171.433 112.017C173.051 112.017 174.386 113.336 174.386 114.981C174.365 116.625 173.051 117.944 171.433 117.944ZM187.249 111.022H155.596V56.5558H187.249V111.022Z" fill="white"/>
</g>
<rect width="68" height="68" rx="34" fill="#66FFCC" fill-opacity="0.16"/>
<g clip-path="url(#clip1_909_6197)">
<path d="M45.0772 26.8982L42.5438 25.6752L35.2526 22.171C35.0189 22.0584 34.761 21.9998 34.4996 21.9998C34.2381 21.9998 33.9803 22.0584 33.7466 22.171L26.4561 25.6777L23.9203 26.8982C23.6438 27.0319 23.4115 27.2366 23.249 27.4895C23.0865 27.7424 23.0003 28.0336 23 28.3307V36.0321C23.0259 38.9429 24.2488 41.726 26.4025 43.7755C28.5562 45.825 31.4663 46.9749 34.4992 46.9749C37.5321 46.9749 40.4421 45.825 42.5958 43.7755C44.7495 41.726 45.9725 38.9429 45.9983 36.0321V28.3307C45.9979 28.0335 45.9116 27.7422 45.749 27.4893C45.5864 27.2364 45.3538 27.0318 45.0772 26.8982ZM34.5004 43.5199C32.3758 43.5198 30.3323 42.7372 28.7912 41.3336C27.2501 39.9299 26.3289 38.0122 26.2177 35.9759L32.1687 38.8168C32.3571 38.9068 32.5622 38.9602 32.7721 38.9741C32.9821 38.988 33.1928 38.9621 33.3923 38.8978C33.5918 38.8335 33.7762 38.7322 33.9349 38.5995C34.0936 38.4669 34.2235 38.3055 34.3172 38.1247C34.4109 37.9438 34.4666 37.747 34.4811 37.5455C34.4956 37.344 34.4685 37.1418 34.4016 36.9503C34.3346 36.7588 34.229 36.5818 34.0908 36.4295C33.9526 36.2772 33.7844 36.1525 33.596 36.0626L26.206 32.5295V30.0507C26.2063 29.8355 26.2691 29.6247 26.3874 29.4419C26.5056 29.259 26.6746 29.1114 26.8753 29.0156L28.7025 28.1324L33.9599 25.6078C34.1286 25.5262 34.3149 25.4838 34.5038 25.4838C34.6926 25.4838 34.8789 25.5262 35.0476 25.6078L40.3067 28.1372L42.1339 29.0205C42.3346 29.1163 42.5036 29.2638 42.6218 29.4467C42.7401 29.6295 42.8029 29.8403 42.8032 30.0555V33.1606L36.8263 30.3068C36.6377 30.2154 36.4321 30.1605 36.2214 30.1456C36.0106 30.1306 35.7989 30.1557 35.5983 30.2195C35.3977 30.2833 35.2123 30.3845 35.0526 30.5173C34.8929 30.6501 34.7621 30.8119 34.6677 30.9934C34.4786 31.3589 34.4484 31.7814 34.5838 32.1683C34.7192 32.5551 35.0091 32.8745 35.3898 33.0562L42.7279 36.5596C42.474 38.4821 41.4982 40.2496 39.9836 41.5309C38.469 42.8123 36.5194 43.5194 34.5004 43.5199Z" fill="url(#paint0_linear_909_6197)"/>
</g>
<defs>
<linearGradient id="paint0_linear_909_6197" x1="34.4992" y1="21.9998" x2="34.4992" y2="46.9749" gradientUnits="userSpaceOnUse">
<stop stop-color="#66FFCC"/>
<stop offset="1" stop-color="#DDFFF4"/>
</linearGradient>
<clipPath id="clip0_909_6197">
<rect width="172" height="100" fill="white" transform="translate(18 19)"/>
</clipPath>
<clipPath id="clip1_909_6197">
<rect width="23" height="25" fill="white" transform="translate(23 22)"/>
</clipPath>
</defs>
</svg>
